<svg width="278" height="52" viewBox="0 0 278 52" fill="none" xmlns="http://www.w3.org/2000/svg">
<path d="M13.272 26.976L1.104 27V24.696L6.84 19.848C9.216 17.832 10.008 16.68 10.008 15C10.008 13.008 8.928 11.88 7.08 11.88C5.16 11.88 3.96 13.224 3.936 15.48H0.888C0.912 11.64 3.36 9.144 7.08 9.144C10.824 9.144 13.152 11.28 13.152 14.832C13.152 17.28 11.808 19.128 9.144 21.408L5.976 24.12H13.272V26.976ZM15.1648 18.264C15.1648 12.816 18.0928 9.12 22.5808 9.12C27.0688 9.12 30.0208 12.816 30.0208 18.264C30.0208 23.688 27.2368 27.312 22.5808 27.312C17.9248 27.312 15.1648 23.688 15.1648 18.264ZM18.1888 18.264C18.1888 22.32 19.8208 24.6 22.5808 24.6C25.3648 24.6 26.9968 22.32 26.9968 18.264C26.9968 14.112 25.3648 11.832 22.5808 11.832C19.8208 11.832 18.1888 14.112 18.1888 18.264ZM32.0867 18.264C32.0867 12.816 35.0147 9.12 39.5027 9.12C43.9907 9.12 46.9427 12.816 46.9427 18.264C46.9427 23.688 44.1587 27.312 39.5027 27.312C34.8467 27.312 32.0867 23.688 32.0867 18.264ZM35.1107 18.264C35.1107 22.32 36.7427 24.6 39.5027 24.6C42.2867 24.6 43.9187 22.32 43.9187 18.264C43.9187 14.112 42.2867 11.832 39.5027 11.832C36.7427 11.832 35.1107 14.112 35.1107 18.264ZM49.8966 17.688H54.6726V12.912H57.1206V17.688H61.8966V20.136H57.1206V24.936H54.6726V20.136H49.8966V17.688Z" fill="black"/>
<path d="M1.908 35.408V44H1.044V35.408H1.908ZM4.64513 44H3.81713V38.192H4.53712L4.65713 39.2C5.04113 38.456 5.80913 38.036 6.64913 38.036C8.24513 38.036 8.90513 38.984 8.90513 40.448V44H8.07713V40.628C8.07713 39.272 7.46513 38.792 6.50513 38.792C5.31713 38.792 4.64513 39.656 4.64513 40.964V44ZM11.8874 44H11.0714V38.888H9.90741V38.192H11.0714V36.356H11.8874V38.192H13.0514V38.888H11.8874V44ZM16.507 44.144C14.803 44.144 13.663 42.92 13.663 41.096C13.663 39.284 14.791 38.036 16.447 38.036C18.019 38.036 19.087 39.152 19.087 40.796V41.204H14.467C14.527 42.62 15.271 43.436 16.519 43.436C17.467 43.436 18.079 43.028 18.295 42.26H19.087C18.775 43.484 17.875 44.144 16.507 44.144ZM16.447 38.744C15.355 38.744 14.635 39.464 14.491 40.604H18.259C18.259 39.488 17.539 38.744 16.447 38.744ZM23.4469 38.12V38.864H22.9909C21.9229 38.864 21.2389 39.584 21.2389 40.688V44H20.4109V38.192H21.1909L21.2509 39.092C21.4789 38.468 22.0909 38.06 22.9069 38.06C23.0869 38.06 23.2429 38.072 23.4469 38.12ZM25.3756 44H24.5476V38.192H25.2676L25.3876 39.2C25.7716 38.456 26.5396 38.036 27.3796 38.036C28.9756 38.036 29.6356 38.984 29.6356 40.448V44H28.8076V40.628C28.8076 39.272 28.1956 38.792 27.2356 38.792C26.0476 38.792 25.3756 39.656 25.3756 40.964V44ZM32.9539 44.144C31.7179 44.144 30.9859 43.448 30.9859 42.428C30.9859 41.36 31.8019 40.688 33.1579 40.58L35.0779 40.424V40.232C35.0779 39.092 34.3939 38.732 33.5419 38.732C32.5339 38.732 31.9339 39.188 31.9339 39.968H31.1779C31.1779 38.792 32.1379 38.036 33.5659 38.036C34.9099 38.036 35.8939 38.708 35.8939 40.244V44H35.1979L35.0899 42.98C34.7299 43.712 33.9379 44.144 32.9539 44.144ZM33.1459 43.472C34.3699 43.472 35.0779 42.62 35.0779 41.36V41.048L33.3619 41.18C32.2699 41.276 31.8259 41.756 31.8259 42.404C31.8259 43.112 32.3539 43.472 33.1459 43.472ZM38.7819 44H37.9659V38.888H36.8019V38.192H37.9659V36.356H38.7819V38.192H39.9459V38.888H38.7819V44ZM41.4322 36.596C41.0962 36.596 40.8202 36.32 40.8202 35.984C40.8202 35.648 41.0962 35.36 41.4322 35.36C41.7682 35.36 42.0562 35.648 42.0562 35.984C42.0562 36.32 41.7682 36.596 41.4322 36.596ZM41.0242 44V38.192H41.8522V44H41.0242ZM43.1708 41.096C43.1708 39.32 44.4188 38.036 46.1228 38.036C47.8268 38.036 49.0748 39.32 49.0748 41.096C49.0748 42.86 47.8268 44.144 46.1228 44.144C44.4188 44.144 43.1708 42.86 43.1708 41.096ZM44.0108 41.084C44.0108 42.452 44.8748 43.4 46.1228 43.4C47.3588 43.4 48.2348 42.452 48.2348 41.084C48.2348 39.74 47.3588 38.78 46.1228 38.78C44.8748 38.78 44.0108 39.74 44.0108 41.084ZM51.2272 44H50.3992V38.192H51.1192L51.2392 39.2C51.6232 38.456 52.3912 38.036 53.2312 38.036C54.8272 38.036 55.4872 38.984 55.4872 40.448V44H54.6592V40.628C54.6592 39.272 54.0472 38.792 53.0872 38.792C51.8992 38.792 51.2272 39.656 51.2272 40.964V44ZM58.8054 44.144C57.5694 44.144 56.8374 43.448 56.8374 42.428C56.8374 41.36 57.6534 40.688 59.0094 40.58L60.9294 40.424V40.232C60.9294 39.092 60.2454 38.732 59.3934 38.732C58.3854 38.732 57.7854 39.188 57.7854 39.968H57.0294C57.0294 38.792 57.9894 38.036 59.4174 38.036C60.7614 38.036 61.7454 38.708 61.7454 40.244V44H61.0494L60.9414 42.98C60.5814 43.712 59.7894 44.144 58.8054 44.144ZM58.9974 43.472C60.2214 43.472 60.9294 42.62 60.9294 41.36V41.048L59.2134 41.18C58.1214 41.276 57.6774 41.756 57.6774 42.404C57.6774 43.112 58.2054 43.472 58.9974 43.472ZM64.271 44H63.443V35.252H64.271V44ZM69.5401 44V35.408H72.6841C74.3401 35.408 75.3601 36.248 75.3601 37.628C75.3601 38.636 74.9161 39.32 74.0281 39.668C75.0241 39.992 75.5281 40.688 75.5281 41.744C75.5281 43.124 74.4961 44 72.8641 44H69.5401ZM72.6721 36.176H70.4041V39.32H72.7801C73.8601 39.32 74.4721 38.72 74.4721 37.7C74.4721 36.74 73.8241 36.176 72.6721 36.176ZM72.8641 40.076H70.4041V43.22H72.8641C73.9921 43.22 74.6521 42.632 74.6521 41.636C74.6521 40.664 73.9801 40.076 72.8641 40.076ZM79.943 38.12V38.864H79.487C78.419 38.864 77.735 39.584 77.735 40.688V44H76.907V38.192H77.687L77.747 39.092C77.975 38.468 78.587 38.06 79.403 38.06C79.583 38.06 79.739 38.072 79.943 38.12ZM82.4773 44.144C81.2413 44.144 80.5093 43.448 80.5093 42.428C80.5093 41.36 81.3253 40.688 82.6813 40.58L84.6013 40.424V40.232C84.6013 39.092 83.9173 38.732 83.0653 38.732C82.0573 38.732 81.4573 39.188 81.4573 39.968H80.7013C80.7013 38.792 81.6613 38.036 83.0893 38.036C84.4333 38.036 85.4173 38.708 85.4173 40.244V44H84.7213L84.6133 42.98C84.2533 43.712 83.4613 44.144 82.4773 44.144ZM82.6693 43.472C83.8933 43.472 84.6013 42.62 84.6013 41.36V41.048L82.8853 41.18C81.7933 41.276 81.3493 41.756 81.3493 42.404C81.3493 43.112 81.8773 43.472 82.6693 43.472ZM87.9068 44H87.0788V38.192H87.7988L87.9188 39.2C88.3028 38.456 89.0708 38.036 89.9108 38.036C91.5068 38.036 92.1668 38.984 92.1668 40.448V44H91.3388V40.628C91.3388 39.272 90.7268 38.792 89.7668 38.792C88.5788 38.792 87.9068 39.656 87.9068 40.964V44ZM96.0971 44.144C94.4051 44.144 93.4091 42.848 93.4091 41.108C93.4091 39.356 94.4051 38.036 96.1331 38.036C97.0931 38.036 97.8611 38.456 98.2691 39.296V35.252H99.0971V44H98.3771L98.2931 42.812C97.8851 43.712 97.0691 44.144 96.0971 44.144ZM96.2411 43.388C97.5131 43.388 98.2571 42.428 98.2571 41.084C98.2571 39.752 97.5131 38.78 96.2411 38.78C94.9811 38.78 94.2491 39.752 94.2491 41.084C94.2491 42.428 94.9811 43.388 96.2411 43.388ZM100.333 42.368H101.125C101.125 43.04 101.629 43.46 102.445 43.46C103.345 43.46 103.873 43.076 103.873 42.452C103.873 41.972 103.633 41.696 102.949 41.528L101.953 41.276C100.945 41.024 100.453 40.496 100.453 39.704C100.453 38.684 101.305 38.036 102.553 38.036C103.777 38.036 104.569 38.708 104.605 39.788H103.801C103.777 39.116 103.309 38.72 102.529 38.72C101.713 38.72 101.257 39.068 101.257 39.692C101.257 40.136 101.569 40.448 102.205 40.604L103.201 40.856C104.209 41.108 104.665 41.576 104.665 42.416C104.665 43.46 103.777 44.144 102.457 44.144C101.149 44.144 100.333 43.448 100.333 42.368Z" fill="black" fill-opacity="0.6"/>
<line x1="134" y1="-2.18557e-08" x2="134" y2="52" stroke="black" stroke-opacity="0.1"/>
<path d="M174.272 26.976L162.104 27V24.696L167.84 19.848C170.216 17.832 171.008 16.68 171.008 15C171.008 13.008 169.928 11.88 168.08 11.88C166.16 11.88 164.96 13.224 164.936 15.48H161.888C161.912 11.64 164.36 9.144 168.08 9.144C171.824 9.144 174.152 11.28 174.152 14.832C174.152 17.28 172.808 19.128 170.144 21.408L166.976 24.12H174.272V26.976ZM180.885 25.944C180.885 27.936 179.445 29.52 177.501 29.76V28.584C178.581 28.392 179.397 27.744 179.397 26.904C179.205 27 178.989 27.048 178.701 27.048C177.765 27.048 176.997 26.352 176.997 25.392C176.997 24.24 177.741 23.472 178.821 23.472C180.021 23.472 180.885 24.456 180.885 25.944ZM182.61 18.264C182.61 12.816 185.538 9.12 190.026 9.12C194.514 9.12 197.466 12.816 197.466 18.264C197.466 23.688 194.682 27.312 190.026 27.312C185.37 27.312 182.61 23.688 182.61 18.264ZM185.634 18.264C185.634 22.32 187.266 24.6 190.026 24.6C192.81 24.6 194.442 22.32 194.442 18.264C194.442 14.112 192.81 11.832 190.026 11.832C187.266 11.832 185.634 14.112 185.634 18.264ZM199.532 18.264C199.532 12.816 202.46 9.12 206.948 9.12C211.436 9.12 214.388 12.816 214.388 18.264C214.388 23.688 211.604 27.312 206.948 27.312C202.292 27.312 199.532 23.688 199.532 18.264ZM202.556 18.264C202.556 22.32 204.188 24.6 206.948 24.6C209.732 24.6 211.364 22.32 211.364 18.264C211.364 14.112 209.732 11.832 206.948 11.832C204.188 11.832 202.556 14.112 202.556 18.264ZM216.454 18.264C216.454 12.816 219.382 9.12 223.87 9.12C228.358 9.12 231.31 12.816 231.31 18.264C231.31 23.688 228.526 27.312 223.87 27.312C219.214 27.312 216.454 23.688 216.454 18.264ZM219.478 18.264C219.478 22.32 221.11 24.6 223.87 24.6C226.654 24.6 228.286 22.32 228.286 18.264C228.286 14.112 226.654 11.832 223.87 11.832C221.11 11.832 219.478 14.112 219.478 18.264ZM234.264 17.688H239.04V12.912H241.488V17.688H246.264V20.136H241.488V24.936H239.04V20.136H234.264V17.688Z" fill="black"/>
<path d="M162.908 44H162.044V35.408H162.908V39.236H167.552V35.408H168.404V44H167.552V40.04H162.908V44ZM170.733 36.596C170.397 36.596 170.121 36.32 170.121 35.984C170.121 35.648 170.397 35.36 170.733 35.36C171.069 35.36 171.357 35.648 171.357 35.984C171.357 36.32 171.069 36.596 170.733 36.596ZM170.325 44V38.192H171.153V44H170.325ZM172.484 40.928C172.484 39.344 173.504 38.036 175.208 38.036C176.216 38.036 176.984 38.504 177.356 39.356L177.44 38.192H178.16V43.82C178.16 45.548 177.056 46.676 175.352 46.676C173.864 46.676 172.82 45.836 172.592 44.432H173.42C173.6 45.368 174.32 45.92 175.364 45.92C176.552 45.92 177.344 45.116 177.344 43.904V42.524C176.948 43.34 176.144 43.82 175.148 43.82C173.492 43.82 172.484 42.512 172.484 40.928ZM173.312 40.916C173.312 42.104 174.044 43.076 175.268 43.076C176.528 43.076 177.272 42.164 177.272 40.916C177.272 39.68 176.552 38.768 175.28 38.768C174.032 38.768 173.312 39.74 173.312 40.916ZM180.715 43.988H179.887V35.252H180.715V39.2C181.087 38.504 181.795 38.036 182.767 38.036C184.291 38.036 184.975 38.984 184.975 40.448V44H184.147V40.628C184.147 39.272 183.511 38.792 182.611 38.792C181.363 38.792 180.715 39.716 180.715 40.832V43.988ZM186.53 41.216V40.472H190.01V41.216H186.53ZM198.601 44.492L197.689 43.46C197.041 43.904 196.261 44.144 195.385 44.144C192.973 44.144 191.293 42.308 191.293 39.704C191.293 37.1 192.985 35.252 195.385 35.252C197.797 35.252 199.477 37.088 199.477 39.704C199.477 41.036 199.033 42.164 198.289 42.944L199.189 43.952L198.601 44.492ZM198.589 39.704C198.589 37.556 197.281 36.092 195.385 36.092C193.489 36.092 192.193 37.556 192.193 39.704C192.193 41.852 193.489 43.316 195.385 43.316C196.045 43.316 196.633 43.136 197.113 42.824L195.997 41.564L196.573 41.024L197.713 42.296C198.265 41.66 198.589 40.76 198.589 39.704ZM204.944 38.192H205.772V44H205.052L204.944 43.016C204.62 43.688 203.816 44.144 202.904 44.144C201.536 44.144 200.792 43.208 200.792 41.792V38.18H201.632V41.528C201.632 42.908 202.244 43.4 203.168 43.4C204.284 43.4 204.944 42.656 204.944 41.276V38.192ZM209.165 44.144C207.929 44.144 207.197 43.448 207.197 42.428C207.197 41.36 208.013 40.688 209.369 40.58L211.289 40.424V40.232C211.289 39.092 210.605 38.732 209.753 38.732C208.745 38.732 208.145 39.188 208.145 39.968H207.389C207.389 38.792 208.349 38.036 209.777 38.036C211.121 38.036 212.105 38.708 212.105 40.244V44H211.409L211.301 42.98C210.941 43.712 210.149 44.144 209.165 44.144ZM209.357 43.472C210.581 43.472 211.289 42.62 211.289 41.36V41.048L209.573 41.18C208.481 41.276 208.037 41.756 208.037 42.404C208.037 43.112 208.565 43.472 209.357 43.472ZM214.63 44H213.802V35.252H214.63V44ZM216.799 36.596C216.463 36.596 216.187 36.32 216.187 35.984C216.187 35.648 216.463 35.36 216.799 35.36C217.135 35.36 217.423 35.648 217.423 35.984C217.423 36.32 217.135 36.596 216.799 36.596ZM216.391 44V38.192H217.219V44H216.391ZM220.278 44H219.462V38.888H218.298V38.192H219.462V36.356H220.278V38.192H221.442V38.888H220.278V44ZM221.932 46.532V45.848H222.568C223.072 45.848 223.576 45.812 223.864 45.032L224.116 44.348L221.764 38.192H222.64L224.512 43.256L226.348 38.192H227.2L224.536 45.332C224.2 46.244 223.636 46.616 222.808 46.616C222.46 46.616 222.196 46.592 221.932 46.532ZM234.953 40.844H232.541V44H231.677V35.408H234.953C236.609 35.408 237.653 36.488 237.653 38.108C237.653 39.668 236.597 40.844 234.953 40.844ZM234.833 36.188H232.541V40.064H234.785C236.033 40.064 236.753 39.272 236.753 38.096C236.753 36.908 236.021 36.188 234.833 36.188ZM241.904 38.12V38.864H241.448C240.38 38.864 239.696 39.584 239.696 40.688V44H238.868V38.192H239.648L239.708 39.092C239.936 38.468 240.548 38.06 241.364 38.06C241.544 38.06 241.7 38.072 241.904 38.12ZM242.374 41.096C242.374 39.32 243.622 38.036 245.326 38.036C247.03 38.036 248.278 39.32 248.278 41.096C248.278 42.86 247.03 44.144 245.326 44.144C243.622 44.144 242.374 42.86 242.374 41.096ZM243.214 41.084C243.214 42.452 244.078 43.4 245.326 43.4C246.562 43.4 247.438 42.452 247.438 41.084C247.438 39.74 246.562 38.78 245.326 38.78C244.078 38.78 243.214 39.74 243.214 41.084ZM251.882 44.144C250.19 44.144 249.194 42.848 249.194 41.108C249.194 39.356 250.19 38.036 251.918 38.036C252.878 38.036 253.646 38.456 254.054 39.296V35.252H254.882V44H254.162L254.078 42.812C253.67 43.712 252.854 44.144 251.882 44.144ZM252.026 43.388C253.298 43.388 254.042 42.428 254.042 41.084C254.042 39.752 253.298 38.78 252.026 38.78C250.766 38.78 250.034 39.752 250.034 41.084C250.034 42.428 250.766 43.388 252.026 43.388ZM260.69 38.192H261.518V44H260.798L260.69 43.016C260.366 43.688 259.562 44.144 258.65 44.144C257.282 44.144 256.538 43.208 256.538 41.792V38.18H257.378V41.528C257.378 42.908 257.99 43.4 258.914 43.4C260.03 43.4 260.69 42.656 260.69 41.276V38.192ZM262.718 41.108C262.718 39.284 263.834 38.036 265.526 38.036C266.87 38.036 267.854 38.816 268.082 40.016H267.254C267.038 39.212 266.342 38.768 265.538 38.768C264.362 38.768 263.534 39.668 263.534 41.096C263.534 42.476 264.302 43.4 265.478 43.4C266.342 43.4 267.038 42.92 267.266 42.176H268.106C267.83 43.364 266.798 44.144 265.478 44.144C263.834 44.144 262.718 42.932 262.718 41.108ZM270.692 44H269.876V38.888H268.712V38.192H269.876V36.356H270.692V38.192H271.856V38.888H270.692V44ZM272.442 42.368H273.234C273.234 43.04 273.738 43.46 274.554 43.46C275.454 43.46 275.982 43.076 275.982 42.452C275.982 41.972 275.742 41.696 275.058 41.528L274.062 41.276C273.054 41.024 272.562 40.496 272.562 39.704C272.562 38.684 273.414 38.036 274.662 38.036C275.886 38.036 276.678 38.708 276.714 39.788H275.91C275.886 39.116 275.418 38.72 274.638 38.72C273.822 38.72 273.366 39.068 273.366 39.692C273.366 40.136 273.678 40.448 274.314 40.604L275.31 40.856C276.318 41.108 276.774 41.576 276.774 42.416C276.774 43.46 275.886 44.144 274.566 44.144C273.258 44.144 272.442 43.448 272.442 42.368Z" fill="black" fill-opacity="0.6"/>
</svg>
