<svg width="103" height="48" viewBox="0 0 103 48" fill="none" xmlns="http://www.w3.org/2000/svg">
<path d="M6.216 16.312H4.08V14.32L8.592 10.168H1.296V7.456H12.432V9.904L8.16 13.84C10.848 14.368 12.936 16.336 12.936 19.432C12.936 23.032 10.128 25.312 6.576 25.312C3.144 25.312 0.48 23.2 0.48 19.408H3.504C3.504 21.424 4.752 22.576 6.624 22.576C8.544 22.576 9.816 21.328 9.816 19.384C9.816 17.608 8.664 16.312 6.216 16.312ZM14.6961 16.264C14.6961 10.816 17.6241 7.12 22.1121 7.12C26.6001 7.12 29.5521 10.816 29.5521 16.264C29.5521 21.688 26.7681 25.312 22.1121 25.312C17.4561 25.312 14.6961 21.688 14.6961 16.264ZM17.7201 16.264C17.7201 20.32 19.3521 22.6 22.1121 22.6C24.8961 22.6 26.5281 20.32 26.5281 16.264C26.5281 12.112 24.8961 9.832 22.1121 9.832C19.3521 9.832 17.7201 12.112 17.7201 16.264ZM35.1428 23.944C35.1428 25.936 33.7028 27.52 31.7588 27.76V26.584C32.8388 26.392 33.6548 25.744 33.6548 24.904C33.4628 25 33.2467 25.048 32.9588 25.048C32.0228 25.048 31.2548 24.352 31.2548 23.392C31.2548 22.24 31.9988 21.472 33.0788 21.472C34.2788 21.472 35.1428 22.456 35.1428 23.944ZM36.8679 16.264C36.8679 10.816 39.7959 7.12 44.2839 7.12C48.7719 7.12 51.7239 10.816 51.7239 16.264C51.7239 21.688 48.9399 25.312 44.2839 25.312C39.6279 25.312 36.8679 21.688 36.8679 16.264ZM39.8919 16.264C39.8919 20.32 41.5239 22.6 44.2839 22.6C47.0679 22.6 48.6999 20.32 48.6999 16.264C48.6999 12.112 47.0679 9.832 44.2839 9.832C41.5239 9.832 39.8919 12.112 39.8919 16.264ZM53.7898 16.264C53.7898 10.816 56.7178 7.12 61.2058 7.12C65.6938 7.12 68.6458 10.816 68.6458 16.264C68.6458 21.688 65.8618 25.312 61.2058 25.312C56.5498 25.312 53.7898 21.688 53.7898 16.264ZM56.8138 16.264C56.8138 20.32 58.4458 22.6 61.2058 22.6C63.9898 22.6 65.6218 20.32 65.6218 16.264C65.6218 12.112 63.9898 9.832 61.2058 9.832C58.4458 9.832 56.8138 12.112 56.8138 16.264ZM70.7117 16.264C70.7117 10.816 73.6397 7.12 78.1277 7.12C82.6157 7.12 85.5677 10.816 85.5677 16.264C85.5677 21.688 82.7837 25.312 78.1277 25.312C73.4717 25.312 70.7117 21.688 70.7117 16.264ZM73.7357 16.264C73.7357 20.32 75.3677 22.6 78.1277 22.6C80.9117 22.6 82.5437 20.32 82.5437 16.264C82.5437 12.112 80.9117 9.832 78.1277 9.832C75.3677 9.832 73.7357 12.112 73.7357 16.264ZM88.5216 15.688H93.2976V10.912H95.7456V15.688H100.522V18.136H95.7456V22.936H93.2976V18.136H88.5216V15.688Z" fill="black"/>
<path d="M1.908 42H1.044V33.408H1.908V37.236H6.552V33.408H7.404V42H6.552V38.04H1.908V42ZM10.9929 42.144C9.75694 42.144 9.02494 41.448 9.02494 40.428C9.02494 39.36 9.84094 38.688 11.1969 38.58L13.1169 38.424V38.232C13.1169 37.092 12.4329 36.732 11.5809 36.732C10.5729 36.732 9.97294 37.188 9.97294 37.968H9.21694C9.21694 36.792 10.1769 36.036 11.6049 36.036C12.9489 36.036 13.9329 36.708 13.9329 38.244V42H13.2369L13.1289 40.98C12.7689 41.712 11.9769 42.144 10.9929 42.144ZM11.1849 41.472C12.4089 41.472 13.1169 40.62 13.1169 39.36V39.048L11.4009 39.18C10.3089 39.276 9.86494 39.756 9.86494 40.404C9.86494 41.112 10.3929 41.472 11.1849 41.472ZM15.5945 44.532V36.192H16.3145L16.3985 37.368C16.8065 36.468 17.6225 36.036 18.5945 36.036C20.2745 36.036 21.2825 37.32 21.2825 39.072C21.2825 40.824 20.3105 42.144 18.5945 42.144C17.6105 42.144 16.8305 41.724 16.4225 40.884V44.532H15.5945ZM16.4345 39.096C16.4345 40.428 17.1785 41.4 18.4505 41.4C19.7105 41.4 20.4425 40.428 20.4425 39.096C20.4425 37.752 19.7105 36.792 18.4505 36.792C17.1785 36.792 16.4345 37.752 16.4345 39.096ZM22.6023 44.532V36.192H23.3223L23.4063 37.368C23.8143 36.468 24.6303 36.036 25.6023 36.036C27.2823 36.036 28.2903 37.32 28.2903 39.072C28.2903 40.824 27.3183 42.144 25.6023 42.144C24.6183 42.144 23.8383 41.724 23.4303 40.884V44.532H22.6023ZM23.4423 39.096C23.4423 40.428 24.1863 41.4 25.4583 41.4C26.7183 41.4 27.4503 40.428 27.4503 39.096C27.4503 37.752 26.7183 36.792 25.4583 36.792C24.1863 36.792 23.4423 37.752 23.4423 39.096ZM28.8346 44.532V43.848H29.4706C29.9746 43.848 30.4786 43.812 30.7666 43.032L31.0186 42.348L28.6666 36.192H29.5426L31.4146 41.256L33.2506 36.192H34.1026L31.4386 43.332C31.1026 44.244 30.5386 44.616 29.7106 44.616C29.3626 44.616 29.0986 44.592 28.8346 44.532ZM42.0832 42.132C39.6832 42.132 38.0512 40.344 38.0512 37.704C38.0512 35.064 39.7072 33.264 42.1312 33.264C43.9792 33.264 45.4312 34.38 45.7792 36.084H44.8552C44.4952 34.848 43.4392 34.092 42.0952 34.092C40.2112 34.092 38.9512 35.532 38.9512 37.704C38.9512 39.864 40.2112 41.304 42.0952 41.304C43.4512 41.304 44.5312 40.572 44.9032 39.42H45.8272C45.4312 41.04 43.9312 42.132 42.0832 42.132ZM51.2213 36.192H52.0493V42H51.3293L51.2213 41.016C50.8973 41.688 50.0933 42.144 49.1813 42.144C47.8133 42.144 47.0693 41.208 47.0693 39.792V36.18H47.9093V39.528C47.9093 40.908 48.5213 41.4 49.4453 41.4C50.5613 41.4 51.2213 40.656 51.2213 39.276V36.192ZM53.165 40.368H53.957C53.957 41.04 54.461 41.46 55.277 41.46C56.177 41.46 56.705 41.076 56.705 40.452C56.705 39.972 56.465 39.696 55.781 39.528L54.785 39.276C53.777 39.024 53.285 38.496 53.285 37.704C53.285 36.684 54.137 36.036 55.385 36.036C56.609 36.036 57.401 36.708 57.437 37.788H56.633C56.609 37.116 56.141 36.72 55.361 36.72C54.545 36.72 54.089 37.068 54.089 37.692C54.089 38.136 54.401 38.448 55.037 38.604L56.033 38.856C57.041 39.108 57.497 39.576 57.497 40.416C57.497 41.46 56.609 42.144 55.289 42.144C53.981 42.144 53.165 41.448 53.165 40.368ZM60.1921 42H59.3761V36.888H58.2121V36.192H59.3761V34.356H60.1921V36.192H61.3561V36.888H60.1921V42ZM61.9677 39.096C61.9677 37.32 63.2157 36.036 64.9197 36.036C66.6237 36.036 67.8717 37.32 67.8717 39.096C67.8717 40.86 66.6237 42.144 64.9197 42.144C63.2157 42.144 61.9677 40.86 61.9677 39.096ZM62.8077 39.084C62.8077 40.452 63.6717 41.4 64.9197 41.4C66.1557 41.4 67.0317 40.452 67.0317 39.084C67.0317 37.74 66.1557 36.78 64.9197 36.78C63.6717 36.78 62.8077 37.74 62.8077 39.084ZM70.024 42H69.196V36.192H69.916L70.012 37.02C70.3 36.408 70.948 36.036 71.764 36.036C72.676 36.036 73.36 36.516 73.636 37.272C73.9 36.516 74.608 36.036 75.544 36.036C76.804 36.036 77.632 36.852 77.632 38.196V42H76.828V38.364C76.828 37.368 76.276 36.78 75.388 36.78C74.416 36.78 73.84 37.512 73.84 38.412V42H73.024V38.352C73.024 37.368 72.46 36.792 71.584 36.792C70.612 36.792 70.024 37.512 70.024 38.4V42ZM81.7336 42.144C80.0296 42.144 78.8896 40.92 78.8896 39.096C78.8896 37.284 80.0176 36.036 81.6736 36.036C83.2456 36.036 84.3136 37.152 84.3136 38.796V39.204H79.6936C79.7536 40.62 80.4976 41.436 81.7456 41.436C82.6936 41.436 83.3056 41.028 83.5216 40.26H84.3136C84.0016 41.484 83.1016 42.144 81.7336 42.144ZM81.6736 36.744C80.5816 36.744 79.8616 37.464 79.7176 38.604H83.4856C83.4856 37.488 82.7656 36.744 81.6736 36.744ZM88.6734 36.12V36.864H88.2174C87.1494 36.864 86.4654 37.584 86.4654 38.688V42H85.6374V36.192H86.4174L86.4774 37.092C86.7054 36.468 87.3174 36.06 88.1334 36.06C88.3134 36.06 88.4694 36.072 88.6734 36.12ZM89.2822 40.368H90.0742C90.0742 41.04 90.5782 41.46 91.3942 41.46C92.2942 41.46 92.8222 41.076 92.8222 40.452C92.8222 39.972 92.5822 39.696 91.8982 39.528L90.9022 39.276C89.8942 39.024 89.4022 38.496 89.4022 37.704C89.4022 36.684 90.2542 36.036 91.5022 36.036C92.7262 36.036 93.5182 36.708 93.5542 37.788H92.7502C92.7262 37.116 92.2582 36.72 91.4782 36.72C90.6622 36.72 90.2062 37.068 90.2062 37.692C90.2062 38.136 90.5182 38.448 91.1542 38.604L92.1502 38.856C93.1582 39.108 93.6142 39.576 93.6142 40.416C93.6142 41.46 92.7262 42.144 91.4062 42.144C90.0982 42.144 89.2822 41.448 89.2822 40.368Z" fill="black" fill-opacity="0.6"/>
</svg>
